HIERARCHY
ROOT Hips
{
	OFFSET 0.00000 0.00000 0.00000
	CHANNELS 6 Xposition Yposition Zposition Zrotation Yrotation Xrotation 
	JOINT LHipJoint
	{
		OFFSET 0 0 0
		CHANNELS 3 Zrotation Yrotation Xrotation
		JOINT LeftHip
		{
			OFFSET 1.61024 -1.73873 0.75100
			CHANNELS 3 Zrotation Yrotation Xrotation
			JOINT LeftKnee
			{
				OFFSET 2.29819 -6.31424 0.00000
				CHANNELS 3 Zrotation Yrotation Xrotation
				JOINT LeftAnkle
				{
					OFFSET 2.76618 -7.60002 0.00000
					CHANNELS 3 Zrotation Yrotation Xrotation
					JOINT LeftToe
					{
						OFFSET 0.16838 -0.46263 2.02361
						CHANNELS 3 Zrotation Yrotation Xrotation
						End Site
						{
							OFFSET 0.00000 -0.00000 1.04662
						}
					}
				}
			}
		}
	}
	JOINT RHipJoint
	{
		OFFSET 0 0 0
		CHANNELS 3 Zrotation Yrotation Xrotation
		JOINT RightHip
		{
			OFFSET -1.46153 -1.73873 0.75100
			CHANNELS 3 Zrotation Yrotation Xrotation
			JOINT RightKnee
			{
				OFFSET -2.38373 -6.54924 0.00000
				CHANNELS 3 Zrotation Yrotation Xrotation
				JOINT RightAnkle
				{
					OFFSET -2.80314 -7.70157 0.00000
					CHANNELS 3 Zrotation Yrotation Xrotation
					JOINT RightToe
					{
						OFFSET -0.16142 -0.44349 2.02101
						CHANNELS 3 Zrotation Yrotation Xrotation
						End Site
						{
							OFFSET -0.00000 -0.00000 1.04381
						}
					}
				}
			}
		}
	}
	JOINT lowerback
	{
		OFFSET 0 0 0
		CHANNELS 3 Zrotation Yrotation Xrotation
		JOINT Chest
		{
			OFFSET -0.01629 1.66985 0.14750
			CHANNELS 3 Zrotation Yrotation Xrotation
			JOINT Chest2
			{
				OFFSET 0.02086 1.62378 0.20980
				CHANNELS 3 Zrotation Yrotation Xrotation
				JOINT lowerneck
				{
					OFFSET 0 0 0
					CHANNELS 3 Zrotation Yrotation Xrotation
					JOINT Neck
					{
						OFFSET -0.05690 1.78719 0.08702
						CHANNELS 3 Zrotation Yrotation Xrotation
						JOINT Head
						{
							OFFSET 0.16035 1.73871 -0.38470
							CHANNELS 3 Zrotation Yrotation Xrotation
							End Site
							{
								OFFSET 0.05645 1.80914 -0.14081
							}
						}
					}
				}
				JOINT LeftCollar
				{
					OFFSET 0 0 0
					CHANNELS 3 Zrotation Yrotation Xrotation
					JOINT LeftShoulder
					{
						OFFSET 2.83089 1.66494 -0.46008
CHANNELS 3 Zrotation Xrotation Yrotation
						JOINT LeftElbow
						{
OFFSET 0 -5.548930 -0.000000
CHANNELS 3 Zrotation Xrotation Yrotation
							JOINT LeftWrist
							{
OFFSET 0 -3.028980 -0.000000
CHANNELS 3 Zrotation Xrotation Yrotation
								JOINT lhand
								{
									OFFSET 0 0 0
CHANNELS 3 Zrotation Xrotation Yrotation
									JOINT LFingers
									{
OFFSET 0 -0.640950 -0.000000
CHANNELS 3 Zrotation Xrotation Yrotation
										End Site
										{
OFFSET 0 -0.516750 -0.000000
										}
									}
								}
								JOINT LThumb
								{
OFFSET 0 0.000000 0.000000
CHANNELS 3 Zrotation Xrotation Yrotation
									End Site
									{
OFFSET 0 -0.524640 0.524640
									}
								}
							}
						}
					}
				}
				JOINT RightCollar
				{
					OFFSET 0 0 0
					CHANNELS 3 Zrotation Yrotation Xrotation
					JOINT RightShoulder
					{
						OFFSET -2.84442 1.45761 -0.18088
CHANNELS 3 Zrotation Xrotation Yrotation
						JOINT RightElbow
						{
OFFSET 0 -5.351900 -0.000000
CHANNELS 3 Zrotation Xrotation Yrotation
							JOINT RightWrist
							{
OFFSET 0 -3.025310 -0.000000
CHANNELS 3 Zrotation Xrotation Yrotation
								JOINT rhand
								{
									OFFSET 0 0 0
CHANNELS 3 Zrotation Xrotation Yrotation
									JOINT RFingers
									{
OFFSET 0 -0.783890 -0.000000
CHANNELS 3 Zrotation Xrotation Yrotation
										End Site
										{
OFFSET 0 -0.631990 -0.000000
										}
									}
								}
								JOINT RThumb
								{
OFFSET 0 0.000000 0.000000
CHANNELS 3 Zrotation Xrotation Yrotation
									End Site
									{
OFFSET 0 -0.641640 0.641640
									}
								}
							}
						}
					}
				}
			}
		}
	}
}
MOTION
Frames: 9
Frame Time: 0.008333333333333333
-0.552300 17.920500 -0.159200 7.972200 82.334400 25.683500 0.000000 0.000000 0.000000 -23.120900 6.583800 -14.692900 0.000000 -0.000000 -0.000000 0.008900 4.801700 -7.151700 0.500000 -4.533200 -12.581900 0.000000 0.000000 0.000000 7.376800 21.479900 -17.631000 -0.568300 -4.828100 13.418900 0.808400 -17.358200 -14.483300 -1.264800 7.128800 -20.097400 -0.903200 -3.796900 -1.021400 3.622200 -4.907400 -4.374200 4.334600 -2.327000 -3.544700 -8.719300 -3.062200 -6.485300 1.078700 -3.109200 14.336200 1.557700 -1.849400 5.568500 0.000000 -0.000000 0.000000 16.972800 -38.082200 -52.048900 146.840100 -43.452600 106.468100 1.962100 -18.517500 -22.787300 0.000000 0.000000 0.000000 -7.125000 0.000000 0.000000 -26.860400 50.730100 4.044700 0.000000 -0.000000 0.000000 -27.519500 -44.446200 44.705600 -152.999700 -38.179500 -110.500700 -10.095300 -6.666000 -10.811900 0.000000 0.000000 0.000000 7.125000 0.000000 -0.000000 11.953800 19.125000 7.542700
-0.354496 17.903472 -0.068669 5.050256 74.674298 22.295014 0.000000 0.000000 0.000000 -25.479439 14.378123 -15.448492 0.000000 0.000000 0.000000 0.137594 2.609976 -8.475602 0.144383 -2.442063 -6.729451 0.000000 0.000000 0.000000 6.507445 23.385796 -18.656136 -0.678356 -5.266402 14.669942 0.297683 -12.246161 -12.586878 -1.719643 8.255884 -23.494070 0.723668 -5.633766 -1.901590 4.730063 -7.275774 -5.325114 4.578032 -3.526285 -3.919051 -8.482397 -3.083876 -6.208848 -0.751360 -2.934865 14.426533 0.959022 -1.880813 5.518898 0.000000 0.000000 0.000000 15.886099 -33.471053 -56.033242 150.615149 -40.359979 108.990826 4.932337 -13.016105 -19.743300 0.000000 0.000000 0.000000 -7.125000 0.000000 0.000000 -22.592054 48.414631 1.997194 0.000000 0.000000 0.000000 -29.577926 -43.275135 48.055825 -155.256323 -35.940865 -111.860983 -13.005424 -11.391662 -15.203002 0.000000 0.000000 0.000000 7.125000 0.000000 0.000000 9.844423 14.554157 7.162028
-0.201925 17.879965 0.024440 2.848386 67.839985 19.762937 0.000000 0.000000 0.000000 -27.352543 21.313286 -16.747304 0.000000 0.000000 0.000000 0.216643 1.278317 -9.355114 0.031706 -1.137871 -3.128488 0.000000 0.000000 0.000000 6.425695 25.160304 -19.220150 -0.710064 -5.385582 15.011540 0.009245 -7.955801 -11.151767 -1.985362 8.835532 -25.282259 2.619669 -6.622274 -2.435414 5.304843 -8.521714 -6.218488 4.174439 -4.192605 -4.664460 -6.958388 -3.001732 -6.398924 -1.855020 -2.840569 14.768829 0.369464 -1.846552 5.608146 0.000000 0.000000 0.000000 15.070907 -30.982027 -59.405114 152.086988 -39.036013 109.931173 6.017451 -12.916668 -17.453396 0.000000 0.000000 0.000000 -7.125000 0.000000 0.000000 -20.627162 46.430942 0.760393 0.000000 0.000000 0.000000 -29.993292 -41.133998 52.876672 -156.117765 -35.039479 -112.361133 -17.606700 -9.825529 -15.975017 0.000000 0.000000 0.000000 7.125000 0.000000 0.000000 6.764364 13.346588 5.054651
-0.111930 17.851492 0.091945 2.988580 62.479404 19.567080 0.000000 0.000000 0.000000 -29.461328 26.565245 -17.872113 0.000000 0.000000 0.000000 0.297723 -0.405079 -10.171798 0.043840 1.350133 3.712779 0.000000 0.000000 0.000000 5.551264 27.418086 -20.247408 -0.852967 -5.890162 16.466023 -0.149287 -5.152051 -10.972215 -1.856716 8.561108 -24.431711 3.961068 -6.649251 -3.468880 4.980729 -8.583861 -6.749817 3.049481 -4.288145 -4.902353 -5.484684 -3.365509 -6.227317 -2.411976 -3.444366 15.237721 -0.086309 -2.113340 5.698421 0.000000 0.000000 0.000000 14.790180 -31.057648 -61.173945 151.997587 -39.118519 109.874814 6.128848 -12.818622 -19.074790 0.000000 0.000000 0.000000 -7.125000 0.000000 0.000000 -21.206846 47.961279 1.617896 0.000000 0.000000 0.000000 -28.338786 -39.186488 52.815997 -155.834707 -35.338523 -112.198109 -17.267323 -8.923253 -14.778716 0.000000 0.000000 0.000000 7.125000 0.000000 0.000000 6.959959 14.615687 5.016258
-0.106881 17.833548 0.130351 2.697340 58.989032 19.379413 0.000000 0.000000 0.000000 -30.919473 29.816265 -19.182583 0.000000 0.000000 0.000000 0.332950 -1.547076 -10.469368 0.207119 2.929332 8.082150 0.000000 0.000000 0.000000 4.933496 29.040239 -21.482989 -0.949131 -6.204485 17.378930 -0.230028 -2.779567 -10.523652 -1.816156 8.471853 -24.156970 5.007329 -6.166488 -4.021265 4.832778 -7.943892 -7.191990 2.311893 -4.020360 -5.243884 -4.530502 -3.502963 -6.632730 -2.841581 -3.629866 16.164943 -0.406425 -2.201797 6.030657 0.000000 0.000000 0.000000 14.181826 -31.299913 -62.422917 152.193147 -38.937796 109.997934 6.102994 -11.450163 -18.476574 0.000000 0.000000 0.000000 -7.125000 0.000000 0.000000 -20.973573 47.399018 1.297517 0.000000 0.000000 0.000000 -27.585018 -38.910550 51.787635 -155.823756 -35.350054 -112.191673 -16.882818 -11.056341 -13.706330 0.000000 0.000000 0.000000 7.125000 0.000000 0.000000 7.202595 15.756171 5.016502
-0.121210 17.828226 0.178625 2.637729 58.382580 19.306246 0.000000 0.000000 0.000000 -30.984814 30.468674 -19.320893 0.000000 0.000000 0.000000 0.346915 -2.028924 -10.606539 0.293814 3.485301 9.633050 0.000000 0.000000 0.000000 4.938019 29.529819 -21.648361 -0.980545 -6.303337 17.667231 -0.248321 -2.335824 -10.570662 -1.837118 8.518161 -24.299336 5.683886 -6.419470 -4.515834 5.355839 -8.270352 -7.456777 2.461082 -4.197410 -5.283107 -4.925396 -2.964118 -7.207286 -3.068386 -2.753221 16.650504 -0.365410 -1.831260 6.285170 0.000000 0.000000 0.000000 13.950400 -31.087694 -61.756421 152.375991 -38.767783 110.112645 7.728223 -10.982288 -17.975710 0.000000 0.000000 0.000000 -7.125000 0.000000 0.000000 -19.298367 47.144358 1.059282 0.000000 0.000000 0.000000 -27.037691 -39.589657 52.939522 -156.141911 -35.013770 -112.375073 -16.477443 -12.334470 -13.677212 0.000000 0.000000 0.000000 7.125000 0.000000 0.000000 7.480080 15.820644 5.202545
-0.187132 17.826437 0.231026 2.836457 57.744317 19.603944 0.000000 0.000000 0.000000 -31.262402 30.945599 -19.802451 0.000000 0.000000 0.000000 0.345325 -2.309792 -10.541037 0.460971 4.355260 12.078468 0.000000 0.000000 0.000000 4.794878 29.602371 -22.584183 -1.042189 -6.492467 18.220179 -0.252512 -1.483782 -10.154017 -1.822902 8.487071 -24.203477 5.919436 -5.859095 -4.235830 5.304354 -7.479662 -7.622397 2.323679 -3.816239 -5.655999 -4.684250 -2.713830 -7.890365 -3.141991 -2.374219 17.018731 -0.413067 -1.651492 6.513524 0.000000 0.000000 0.000000 14.003082 -31.136376 -61.287477 152.135803 -38.990924 109.961867 6.431058 -12.739339 -18.455488 0.000000 0.000000 0.000000 -7.125000 0.000000 0.000000 -20.667743 47.423544 1.288691 0.000000 0.000000 0.000000 -27.103807 -39.369986 52.086920 -155.986745 -35.178274 -112.285794 -15.596711 -11.862871 -13.450375 0.000000 0.000000 0.000000 7.125000 0.000000 0.000000 8.082546 16.125430 5.576045
-0.279448 17.827048 0.315314 3.123744 56.845598 20.024526 0.000000 0.000000 0.000000 -31.669035 31.589222 -20.538537 0.000000 0.000000 0.000000 0.328540 -2.314246 -10.273022 0.451708 4.311918 11.955979 0.000000 0.000000 0.000000 4.445780 30.950543 -23.761762 -1.202002 -6.955904 19.584849 -0.258618 -1.558604 -10.304820 -1.590051 7.954098 -22.574829 5.250721 -6.706480 -3.095562 6.702295 -8.437528 -7.818594 4.315414 -4.211721 -6.200580 -6.862818 -1.135233 -7.983924 -2.811561 0.025962 16.437299 0.239575 -0.584252 6.338853 0.000000 0.000000 0.000000 14.549915 -30.818764 -54.374067 152.027021 -39.091337 109.893334 6.784707 0.247114 -26.656753 0.000000 0.000000 0.000000 -7.125000 0.000000 0.000000 -24.695991 55.037012 6.392252 0.000000 0.000000 0.000000 -26.494413 -40.885489 53.254478 -155.594957 -35.589529 -112.058879 -11.320957 5.198508 -9.234422 0.000000 0.000000 0.000000 7.125000 0.000000 0.000000 11.174184 20.640078 6.635710
-0.438627 17.816292 0.440248 2.623663 55.808604 20.213073 0.000000 0.000000 0.000000 -31.692101 32.255250 -22.067684 0.000000 0.000000 0.000000 0.276766 -2.827931 -9.363564 0.706184 5.370815 14.969429 0.000000 0.000000 0.000000 4.518644 31.854935 -25.646096 -1.301853 -7.228268 20.393525 -0.250962 -1.115806 -9.936802 -1.532462 7.815593 -22.155390 5.007551 -6.302461 -1.024522 6.400970 -7.814810 -7.172624 4.318021 -3.900069 -6.719491 -4.187116 -0.805881 -8.505813 -3.946762 0.251305 15.540822 -0.537697 -0.389932 6.132115 0.000000 0.000000 0.000000 16.152569 -36.330221 -46.726319 148.276325 -42.325594 107.445564 8.920666 8.946583 -39.017037 0.000000 0.000000 0.000000 -7.125000 0.000000 0.000000 -34.659665 66.188837 18.670441 0.000000 0.000000 0.000000 -27.901860 -45.098055 45.339449 -151.820409 -39.279524 -109.762241 1.406188 12.068891 -4.378714 0.000000 0.000000 0.000000 7.125000 0.000000 0.000000 20.779239 25.474699 10.491350
